# xmcd
#
# Track frame offsets:
#	150
#	18218
#	42918
#	93611
#	163786
#
# Disc length: 2535 seconds
#
# Revision: 2
# Processed by: cddbd v1.5.1PL0 Copyright (c) Steve Scherf et al.
# Submitted via: EasyCDDAExtractor 7.0.4.1
#
DISCID=3509e505
DTITLE=Isaac Hayes - To Be Continued
DYEAR=1979
DGENRE=Soul
TTITLE0=Monologue: Ike's Rap I
TTITLE1=Our Day Will Come
TTITLE2=The Look of Love
TTITLE3=Medley: Monologue - You've Lost That Lovin' Feelin
TTITLE4=Runnin' Out of Fools
EXTD=
EXTT0=
EXTT1=
EXTT2=
EXTT3=
EXTT4=
PLAYORDER=
